<?xml version="1.0" encoding="utf-8"?>
<!-- Generator: Adobe Illustrator 16.0.0, SVG Export Plug-In . SVG Version: 6.00 Build 0)  -->
<!DOCTYPE svg PUBLIC "-//W3C//DTD SVG 1.1//EN" "http://www.w3.org/Graphics/SVG/1.1/DTD/svg11.dtd">
<svg version="1.1" id="Capa_1" xmlns="http://www.w3.org/2000/svg" xmlns:xlink="http://www.w3.org/1999/xlink" x="0px" y="0px"
	 width="2395.771px" height="5669.29px" viewBox="1636.784 0 2395.771 5669.29"
	 enable-background="new 1636.784 0 2395.771 5669.29" xml:space="preserve">
	<g fill="#095071">
		<circle cx="2825.486" cy="477.196" r="477.196"/>
		<path d="M2991.717,1181.928c-118.902-24.141-248.181-23.082-364.966,4.446
			c-793.351,92.962-1050.955,1011.25-978.216,1711.427c31.553,302.709,508.749,305.885,476.879,0
			c-26.469-255.167-15.141-640.249,120.491-913.946c0,332.671,0,665.343,0,997.909c0,11.752,1.164,22.764,1.694,34.094
			c-0.318,5.398-1.589,9.951-1.589,15.457c0,791.869-1.376,1583.42-34.093,2374.654c-14.505,351.73,530.877,350.354,545.276,0
			c25.624-620.133,32.082-1240.584,33.564-1861.141c25.835,1.693,51.67,1.693,77.504,0.211
			c1.588,620.557,7.834,1241.008,33.246,1860.93c14.504,350.354,559.887,351.73,545.275,0
			c-32.715-791.234-33.881-1582.785-33.881-2374.654c0-24.564-3.281-46.904-8.258-68.396
			c-0.742-343.789-13.871-687.897-9.848-1031.474c162.42,274.968,177.242,694.354,149.078,966.146
			c-31.975,305.672,445.328,302.602,476.879,0C4095.188,2182.908,3825.196,1240.796,2991.717,1181.928z"/>
	</g>
</svg>
