<svg xmlns="http://www.w3.org/2000/svg" xmlns:xlink="http://www.w3.org/1999/xlink" viewbox="0 0 127.56 127.56"> <defs> <style>
      .a {
        fill: url(#a);
      }

      .b {
        fill: #fff;
      }</style> <lineargradient id="a" data-name="Градієнт без назви 30" x1="116.03" y1="100.37" x2="11.53" y2="27.19" gradientunits="userSpaceOnUse"> <stop offset="0" stop-color="#fc8929" /><stop offset="0.5" stop-color="#fc8929" /><stop offset="0.5" stop-color="#ff7400" /><stop offset="1" stop-color="#ff7400" /> </lineargradient> </defs> <title> info </title> <circle class="a" cx="63.78" cy="63.78" r="63.78" /> <g> <path class="b" d="M63.88,16.55A47.23,47.23,0,1,0,111,63.88,47.44,47.44,0,0,0,63.88,16.55h0Zm0,85.9a38.58,38.58,0,1,1,38.58-38.58,38.61,38.61,0,0,1-38.58,38.58h0Zm0,0" /><path class="b" d="M70.24,80.78l-4,1.79,5.17-26.45a3.74,3.74,0,0,0-5.57-4l-9.74,5.37a3.79,3.79,0,0,0,3.78,6.56l2.39-1.19-5,25.25a4,4,0,0,0,3.78,4.57,3.74,3.74,0,0,0,1.59-.4l10.54-4.57a3.79,3.79,0,1,0-3-7h0Zm0,0" /><path class="b" d="M67.66,45a5.37,5.37,0,1,0-5.37-5.37A5.35,5.35,0,0,0,67.66,45h0Zm0,0" /> </g> </svg> 