<?xml version="1.0" encoding="utf-8"?>
<!DOCTYPE svg PUBLIC "-//W3C//DTD SVG 1.1//EN" "http://www.w3.org/Graphics/SVG/1.1/DTD/svg11.dtd">
<svg version="1.1" xmlns="http://www.w3.org/2000/svg" xmlns:xlink="http://www.w3.org/1999/xlink" x="0px" y="0px" viewBox="102.281 0 307.444 512" enable-background="new 102.281 0 307.444 512" xml:space="preserve">
	<g fill="#1A658F">
		<path d="M230.8,360.638c-39.692-4.14-75.48-13.915-106.121-37.88c-3.802-2.981-7.727-5.855-11.196-9.186
			c-13.411-12.88-14.763-27.632-4.15-42.834c9.078-13.009,24.318-16.489,40.158-9.02c3.067,1.448,5.99,3.255,8.789,5.196
			c57.103,39.236,135.548,40.319,192.867,1.765c5.679-4.354,11.748-7.904,18.784-9.717c13.679-3.513,26.437,1.512,33.777,13.48
			c8.387,13.669,8.279,27.01-2.054,37.622c-15.852,16.27-34.914,28.04-56.096,36.255c-20.028,7.765-41.965,11.674-63.678,14.27
			c3.277,3.565,4.821,5.319,6.869,7.378c29.482,29.622,59.094,59.12,88.479,88.832c10.012,10.124,12.104,22.678,6.59,34.453
			c-6.027,12.87-19.518,21.337-32.747,20.431c-8.382-0.579-14.918-4.751-20.726-10.602c-22.248-22.388-44.914-44.362-66.713-67.174
			c-6.344-6.633-9.395-5.378-14.993,0.381c-22.382,23.042-45.129,45.73-68.01,68.289c-10.274,10.13-22.5,11.953-34.416,6.167
			c-12.666-6.14-20.725-19.068-20.104-32.062c0.429-8.789,4.751-15.502,10.784-21.524c29.177-29.134,58.272-58.342,87.379-87.523
			C226.199,365.694,227.995,363.635,230.8,360.638z"/>
		<path d="M254.979,259.156c-70.81-0.242-128.873-58.943-128.46-129.865C126.926,57.586,185.027-0.198,256.533,0
			c71.652,0.193,129.162,58.809,128.803,131.259C384.972,202.036,326.506,259.402,254.979,259.156z M319.332,129.462
			c-0.123-35.214-28.168-63.249-63.313-63.281c-35.439-0.038-63.736,28.506-63.463,64.042c0.263,35.08,28.549,62.916,63.79,62.788
			C291.48,192.888,319.449,164.671,319.332,129.462z"/>
	</g>
</svg>
