<?xml version="1.0" encoding="utf-8"?>
<!-- Generator: Adobe Illustrator 16.0.0, SVG Export Plug-In . SVG Version: 6.00 Build 0)  -->
<!DOCTYPE svg PUBLIC "-//W3C//DTD SVG 1.1//EN" "http://www.w3.org/Graphics/SVG/1.1/DTD/svg11.dtd">
<svg version="1.1" id="Layer_1" xmlns="http://www.w3.org/2000/svg" xmlns:xlink="http://www.w3.org/1999/xlink" x="0px" y="0px"
	 width="559.999px" height="560px" viewBox="200 0 559.999 560" enable-background="new 200 0 559.999 560" xml:space="preserve">
<path fill="#FB7228" d="M759.732,441.842c1.187,9.092-1.584,16.996-8.3,23.714l-78.847,78.251
	c-3.557,3.952-8.199,7.314-13.931,10.078c-5.73,2.768-11.361,4.546-16.893,5.335c-0.396,0-1.584,0.103-3.561,0.3
	c-1.974,0.196-4.542,0.297-7.704,0.297c-7.511,0-19.665-1.284-36.462-3.854c-16.797-2.57-37.348-8.895-61.651-18.971
	c-24.311-10.078-51.876-25.197-82.702-45.352c-30.827-20.154-63.631-47.821-98.411-82.997
	c-27.666-27.271-50.588-53.354-68.769-78.253c-18.18-24.899-32.803-47.922-43.87-69.066c-11.067-21.144-19.367-40.312-24.9-57.504
	c-5.533-17.192-9.288-32.013-11.264-44.463c-1.976-12.449-2.767-22.231-2.372-29.345c0.396-7.114,0.593-11.066,0.593-11.856
	c0.791-5.533,2.569-11.165,5.336-16.896c2.766-5.731,6.126-10.375,10.078-13.932l78.847-78.847c5.533-5.533,11.856-8.3,18.971-8.3
	c5.138,0,9.683,1.482,13.635,4.446s7.312,6.62,10.078,10.967l63.433,120.345c3.557,6.323,4.545,13.24,2.964,20.749
	s-4.94,13.833-10.078,18.971l-29.049,29.049c-0.791,0.791-1.482,2.075-2.075,3.853c-0.593,1.779-0.889,3.261-0.889,4.446
	c1.581,8.3,5.138,17.785,10.671,28.456c4.742,9.485,12.054,21.045,21.935,34.681c9.88,13.636,23.911,29.345,42.091,47.129
	c17.785,18.183,33.594,32.31,47.427,42.39c13.83,10.074,25.394,17.488,34.682,22.23s16.401,7.608,21.341,8.593l7.409,1.483
	c0.79,0,2.077-0.297,3.854-0.89c1.778-0.594,3.062-1.284,3.854-2.075l33.791-34.385c7.117-6.322,15.413-9.484,24.899-9.484
	c6.721,0,12.054,1.185,16.006,3.558h0.592l114.416,67.583C753.212,427.419,758.15,433.938,759.732,441.842z"/>
</svg>
