<?xml version="1.0" encoding="utf-8"?>
<!DOCTYPE svg PUBLIC "-//W3C//DTD SVG 1.1//EN" "http://www.w3.org/Graphics/SVG/1.1/DTD/svg11.dtd">
<svg version="1.1" xmlns="http://www.w3.org/2000/svg" xmlns:xlink="http://www.w3.org/1999/xlink" x="0px" y="0px"
	 width="25px" height="25px" viewBox="200 0 560.003 560" enable-background="new 200 0 560.003 560" xml:space="preserve">
<path fill="#ffffff" d="M725.875,289.448c-10.169,0-19.287,4.495-25.542,11.574l-23.034-50.072h18.32v-118.98c0-15.755-12.816-28.571-28.571-28.571
	c-14.175,0-25.938,10.384-28.162,23.94c-26.476-16.574-81.771-43.866-158.946-43.866c-77.327,0-132.658,26.68-159.014,42.782
	c-2.655-13.026-14.197-22.856-27.996-22.856c-15.755,0-28.574,12.816-28.574,28.571v118.98h11.525l-18.291,47.899
	c-6.114-5.821-14.375-9.402-23.468-9.402c-18.815,0-34.123,15.308-34.123,34.123v152.955h68.25v-23.332l423.501,0.423v22.909h68.251
	V323.571C760,304.756,744.692,289.448,725.875,289.448z M332.206,216.146c0-15.704,12.778-28.481,28.481-28.481h57.274
	c15.703,0,28.481,12.778,28.481,28.481v2.077c0,15.703-12.778,28.481-28.481,28.481h-57.274c-15.704,0-28.481-12.778-28.481-28.481
	V216.146L332.206,216.146z M508.623,216.146c0-15.704,12.778-28.481,28.481-28.481h57.274c15.703,0,28.481,12.778,28.481,28.481
	v2.077c0,15.703-12.778,28.481-28.481,28.481h-57.274c-15.703,0-28.481-12.778-28.481-28.481V216.146z M683.543,318.225
	c-26.956-16.399-73.919-39.437-137.389-49.687h48.225c23.536,0,43.295-16.269,48.762-38.137L683.543,318.225z M488.177,229.751
	c3.815,16.187,15.444,29.354,30.694,35.315c-12.45-1.16-25.43-1.807-38.934-1.807c-15.846,0-30.963,0.871-45.351,2.399
	c16.036-5.638,28.356-19.153,32.305-35.905h21.285V229.751z M307.829,229.751h3.93c5.232,22.196,25.157,38.787,48.928,38.787h52.181
	c-64.896,10.346-112.427,33.677-138.796,49.611L307.829,229.751z"/>
</svg>
