<?xml version="1.0" encoding="utf-8"?>
<!-- Generator: Adobe Illustrator 16.0.0, SVG Export Plug-In . SVG Version: 6.00 Build 0)  -->
<!DOCTYPE svg PUBLIC "-//W3C//DTD SVG 1.1//EN" "http://www.w3.org/Graphics/SVG/1.1/DTD/svg11.dtd">
<svg version="1.1" id="Capa_1" xmlns="http://www.w3.org/2000/svg" xmlns:xlink="http://www.w3.org/1999/xlink" x="0px" y="0px"
	 width="33.627px" height="45.977px" viewBox="6.175 0 33.627 45.977" enable-background="new 6.175 0 33.627 45.977"
	 xml:space="preserve">
<g>
	<path fill="#CCCCCC" d="M37.974,7.805H14.007c-0.991,0-1.754,0.796-1.754,1.786v18.856l-6.078,6.716v9.014
		c0,0.99,0.764,1.8,1.754,1.8h15.609v-9.875c0-0.302,0.222-0.58,0.521-0.58h3.855c0.303,0,0.518,0.278,0.518,0.58v9.875h9.539
		c0.99,0,1.83-0.81,1.83-1.8V9.591C39.803,8.601,38.964,7.805,37.974,7.805z M21.464,40.287c0,0.301-0.244,0.545-0.545,0.545h-3.889
		c-0.302,0-0.544-0.244-0.544-0.545v-3.892c0-0.301,0.243-0.545,0.544-0.545h3.889c0.301,0,0.545,0.244,0.545,0.545V40.287z
		 M21.464,33.234c0,0.302-0.244,0.546-0.545,0.546h-3.889c-0.302,0-0.544-0.244-0.544-0.546v-3.891c0-0.301,0.243-0.545,0.544-0.545
		h3.889c0.301,0,0.545,0.244,0.545,0.545V33.234z M21.464,26.097c0,0.302-0.244,0.546-0.545,0.546h-3.889
		c-0.302,0-0.544-0.244-0.544-0.546v-3.889c0-0.301,0.243-0.545,0.544-0.545h3.889c0.301,0,0.545,0.244,0.545,0.545V26.097z
		 M21.464,19.043c0,0.301-0.244,0.545-0.545,0.545h-3.889c-0.302,0-0.544-0.244-0.544-0.545v-3.889c0-0.302,0.243-0.546,0.544-0.546
		h3.889c0.301,0,0.545,0.244,0.545,0.546V19.043z M28.517,33.234c0,0.302-0.244,0.546-0.544,0.546h-3.89
		c-0.3,0-0.544-0.244-0.544-0.546v-3.89c0-0.302,0.244-0.546,0.544-0.546h3.89c0.3,0,0.544,0.244,0.544,0.546V33.234z
		 M28.517,26.097c0,0.302-0.244,0.546-0.544,0.546h-3.89c-0.3,0-0.544-0.244-0.544-0.546v-3.889c0-0.301,0.244-0.545,0.544-0.545
		h3.89c0.3,0,0.544,0.244,0.544,0.545V26.097z M28.517,19.043c0,0.301-0.244,0.545-0.544,0.545h-3.89
		c-0.3,0-0.544-0.244-0.544-0.545v-3.889c0-0.302,0.244-0.546,0.544-0.546h3.89c0.3,0,0.544,0.244,0.544,0.546V19.043z
		 M35.572,40.287c0,0.301-0.244,0.545-0.546,0.545h-3.889c-0.301,0-0.545-0.244-0.545-0.545v-3.892c0-0.301,0.244-0.545,0.545-0.545
		h3.889c0.302,0,0.546,0.244,0.546,0.545V40.287z M35.572,33.234c0,0.302-0.244,0.546-0.546,0.546h-3.889
		c-0.301,0-0.545-0.244-0.545-0.546v-3.891c0-0.301,0.244-0.545,0.545-0.545h3.889c0.302,0,0.546,0.244,0.546,0.545V33.234z
		 M35.572,26.097c0,0.302-0.244,0.546-0.546,0.546h-3.889c-0.301,0-0.545-0.244-0.545-0.546v-3.889c0-0.301,0.244-0.545,0.545-0.545
		h3.889c0.302,0,0.546,0.244,0.546,0.545V26.097z M35.572,19.043c0,0.301-0.244,0.545-0.546,0.545h-3.889
		c-0.301,0-0.545-0.244-0.545-0.545v-3.889c0-0.302,0.244-0.546,0.545-0.546h3.889c0.302,0,0.546,0.244,0.546,0.546V19.043z
		 M17.812,5.523l1.411,1.015c0.145,0.104,0.338,0.103,0.48-0.002c0.143-0.105,0.202-0.289,0.146-0.457l-0.546-1.651
		c-0.055-0.168,0.004-0.353,0.146-0.457l1.4-1.03c0.144-0.104,0.202-0.289,0.146-0.457c-0.057-0.169-0.213-0.28-0.391-0.279
		l-1.738,0.009c-0.178,0.001-0.334-0.112-0.391-0.28l-0.545-1.651c-0.056-0.168-0.213-0.281-0.39-0.28s-0.333,0.116-0.387,0.285
		L16.627,1.94c-0.054,0.169-0.21,0.284-0.387,0.284l-1.738,0.01c-0.177,0.002-0.333,0.116-0.387,0.285
		c-0.055,0.167,0.007,0.353,0.15,0.455l1.411,1.016c0.145,0.103,0.205,0.286,0.151,0.456L15.3,6.1
		c-0.054,0.169,0.007,0.354,0.151,0.456c0.144,0.104,0.338,0.103,0.48-0.003l1.4-1.028C17.474,5.42,17.668,5.419,17.812,5.523z
		 M26.377,5.523l1.411,1.015c0.144,0.104,0.338,0.103,0.479-0.002c0.145-0.105,0.202-0.289,0.146-0.457l-0.545-1.651
		c-0.056-0.168,0.004-0.353,0.146-0.457l1.401-1.03c0.142-0.104,0.201-0.289,0.146-0.457c-0.056-0.169-0.213-0.28-0.39-0.279
		l-1.739,0.009c-0.177,0.001-0.334-0.112-0.39-0.28l-0.547-1.648c-0.056-0.168-0.213-0.281-0.39-0.28
		c-0.179,0.001-0.334,0.116-0.388,0.285l-0.526,1.652c-0.055,0.17-0.211,0.284-0.389,0.284l-1.738,0.011
		c-0.177,0.001-0.333,0.115-0.387,0.284c-0.054,0.167,0.007,0.353,0.151,0.455l1.412,1.016c0.144,0.103,0.205,0.287,0.149,0.456
		l-0.527,1.654c-0.055,0.169,0.007,0.354,0.15,0.456c0.145,0.104,0.338,0.103,0.48-0.003l1.398-1.028
		C26.038,5.42,26.233,5.419,26.377,5.523z M34.782,5.523l1.412,1.015c0.145,0.104,0.338,0.103,0.479-0.002
		c0.143-0.105,0.202-0.289,0.146-0.457l-0.548-1.651c-0.056-0.168,0.005-0.353,0.146-0.457l1.4-1.03
		c0.143-0.104,0.2-0.289,0.146-0.457c-0.056-0.169-0.213-0.28-0.39-0.279l-1.738,0.009c-0.178,0.001-0.334-0.112-0.391-0.28
		l-0.545-1.648c-0.058-0.168-0.214-0.281-0.393-0.28c-0.178,0.001-0.333,0.116-0.387,0.285l-0.528,1.655
		c-0.054,0.169-0.21,0.283-0.387,0.283l-1.738,0.011c-0.177,0.001-0.333,0.115-0.387,0.284c-0.055,0.167,0.007,0.353,0.149,0.455
		l1.412,1.016c0.146,0.103,0.205,0.287,0.151,0.456l-0.528,1.654c-0.054,0.169,0.008,0.354,0.151,0.456
		c0.144,0.104,0.337,0.103,0.479-0.003l1.4-1.027C34.447,5.42,34.64,5.419,34.782,5.523z"/>
</g>
</svg>
