<?xml version="1.0" encoding="utf-8"?>
<!DOCTYPE svg PUBLIC "-//W3C//DTD SVG 1.1//EN" "http://www.w3.org/Graphics/SVG/1.1/DTD/svg11.dtd">
<svg version="1.1" xmlns="http://www.w3.org/2000/svg" xmlns:xlink="http://www.w3.org/1999/xlink" x="0px" y="0px" viewBox="0 544.753 5669.29 4579.769" enable-background="new 0 544.753 5669.29 4579.769"
	 xml:space="preserve">
<g fill="#095071">
	<path d="M5657.895,3604.243l-624.053-987.996V798.781l-254.029-254.028H889.463L635.434,798.781v1817.45
		L11.38,3604.243H5657.895z M4525.786,1052.81v1268.139c-327.379-84.687-892.932-189.113-1691.148-189.113
		c-798.215,0-1363.77,104.427-1691.146,189.113V1052.81H4525.786z"/>
	<polygon points="0,3916.842 0,4424.899 591.93,4424.899 591.93,5124.522 1099.986,5124.522 1099.986,4424.899
		4569.29,4424.899 4569.29,5124.522 5077.346,5124.522 5077.346,4424.899 5669.29,4424.899 5669.29,3916.842 	"/>
	<path d="M2628.468,1867.516v-295.965c0-175.672-254.958-318.131-569.458-318.131
		c-314.502,0-569.445,142.459-569.445,318.131v444.245c0,0,335.898-84.569,566.773-106.431
		C2264.191,1889.666,2628.468,1867.516,2628.468,1867.516z"/>
	<path d="M4179.725,2015.795v-444.245c0-175.672-254.957-318.131-569.459-318.131s-569.459,142.459-569.459,318.131
		v295.964c0,0,364.291,22.137,572.145,41.85C3843.842,1931.226,4179.725,2015.795,4179.725,2015.795z"/>
</g>
</svg>
