<?xml version="1.0" encoding="utf-8"?>
<!DOCTYPE svg PUBLIC "-//W3C//DTD SVG 1.1//EN" "http://www.w3.org/Graphics/SVG/1.1/DTD/svg11.dtd">
<svg version="1.1" xmlns="http://www.w3.org/2000/svg" xmlns:xlink="http://www.w3.org/1999/xlink" x="0px" y="0px" viewBox="0 0 430.123 430.123" enable-background="new 0 0 430.123 430.123" xml:space="preserve">
	<path fill="#FFFFFF" d="M412.149,246.199c1.605-10.155,2.451-20.544,2.451-31.148
		c0-110.215-89.342-199.555-199.557-199.555c-10.576,0-20.994,0.871-31.14,2.458c-18.379-11.372-40.07-17.953-63.317-17.953
		C53.99,0.001,0,53.985,0,120.591c0,23.242,6.585,44.916,17.952,63.332c-1.573,10.172-2.439,20.528-2.439,31.132
		c0,110.224,89.338,199.536,199.527,199.536c10.585,0,21.008-0.815,31.151-2.417c18.398,11.351,40.071,17.949,63.312,17.949
		c66.615,0,120.6-53.998,120.6-120.602C430.108,286.27,423.527,264.602,412.149,246.199z M309.789,305.811
		c-8.441,12.153-20.843,21.65-37.046,28.479c-16.237,6.847-35.428,10.254-57.589,10.254c-26.562,0-48.553-4.647-65.912-14.034
		c-12.304-6.721-22.313-15.736-30.006-26.979c-7.709-11.253-11.619-22.271-11.619-33.016c0-6.338,2.417-11.85,7.122-16.344
		c4.753-4.526,10.876-6.796,18.104-6.796c5.919,0,11.004,1.783,15.145,5.316c4.108,3.531,7.555,8.666,10.375,15.442
		c3.378,7.851,7.048,14.412,10.954,19.648c3.881,5.171,9.343,9.487,16.417,12.866c6.996,3.389,16.306,5.082,27.957,5.082
		c15.945,0,28.83-3.448,38.692-10.252c9.911-6.866,14.672-15.221,14.672-25.314c0-8.051-2.566-14.445-7.83-19.43
		c-5.312-5.051-12.172-8.896-20.685-11.579c-8.546-2.711-20.02-5.586-34.398-8.615c-19.308-4.214-35.455-9.119-48.532-14.752
		c-13.094-5.654-23.522-13.383-31.25-23.146c-7.745-9.859-11.607-22.113-11.607-36.627c0-13.84,4.077-26.217,12.239-36.989
		c8.158-10.802,19.961-19.07,35.351-24.829c15.335-5.757,33.39-8.637,54.073-8.637c16.541,0,30.85,1.914,42.959,5.722
		c12.078,3.836,22.146,8.897,30.195,15.25c7.999,6.338,13.885,13.022,17.613,20.038c3.725,7.036,5.601,13.908,5.601,20.614
		c0,6.235-2.417,11.89-7.127,16.846c-4.709,4.963-10.733,7.493-17.769,7.47c-6.342,0-11.315-1.463-14.766-4.56
		c-3.36-2.996-6.889-7.766-10.706-14.414c-4.824-9.276-10.604-16.503-17.323-21.672c-6.543-5.073-17.338-7.714-32.358-7.682
		c-13.898,0-25.018,2.84-33.41,8.394c-8.445,5.643-12.481,12.19-12.501,19.861c0.014,4.807,1.396,8.86,4.177,12.326
		c2.824,3.498,6.753,6.529,11.803,9.084c5.053,2.595,10.191,4.602,15.355,6.046c5.225,1.481,13.894,3.622,25.944,6.457
		c15.11,3.257,28.817,6.896,41.135,10.862c12.293,3.986,22.784,8.793,31.45,14.52c8.735,5.71,15.563,12.99,20.438,21.783
		c4.909,8.808,7.354,19.564,7.354,32.222C322.497,279.969,318.251,293.677,309.789,305.811z"/>
</svg>
