<?xml version="1.0" encoding="utf-8"?>
<!DOCTYPE svg PUBLIC "-//W3C//DTD SVG 1.1//EN" "http://www.w3.org/Graphics/SVG/1.1/DTD/svg11.dtd">
<svg version="1.1" xmlns="http://www.w3.org/2000/svg" xmlns:xlink="http://www.w3.org/1999/xlink" x="0px" y="0px" viewBox="0 0 5669.29 5669.29" enable-background="new 0 0 5669.29 5669.29" xml:space="preserve">
  <path fill="#FFFFFF" d="M5666.584,4473.092c12.012,92.037-16.035,172.059-84.023,240.068l-798.225,792.191
    c-36.01,40.012-83.012,74.051-141.029,102.029c-58.016,28.018-115.021,46.021-171.018,54.014c-4.002,0-16.035,1.029-36.049,3.031
    c-19.977,1.99-45.984,3.01-77.992,3.01c-76.041,0-199.086-13.004-369.133-39.02c-170.049-26.018-378.096-90.045-624.146-192.055
    c-246.107-102.027-525.176-255.09-837.252-459.127c-312.078-204.027-644.181-484.127-996.279-840.236
    c-280.078-276.076-512.143-540.15-696.194-792.211c-184.051-252.08-332.093-485.145-444.124-699.206
    c-112.041-214.059-196.064-408.113-252.08-582.162s-94.026-324.091-114.032-450.126C5.001,1487.259-3.001,1388.231,1,1316.211
    c4.001-72.02,6.002-112.031,6.002-120.033c8.002-56.016,26.007-113.032,54.015-171.049
    C89.025,967.114,123.034,920.1,163.046,884.09L961.269,85.868c56.016-56.016,120.034-84.024,192.054-84.024
    c52.015,0,98.027,15.004,138.039,45.013c40.011,30.008,74.021,67.019,102.028,111.031l642.178,1218.34
    c36.011,64.018,46.014,134.039,30.009,210.059c-16.004,76.021-50.014,140.039-102.028,192.053l-294.082,294.082
    c-8.002,8.002-15.005,21.006-21.006,39.012c-6.002,18.003-9.003,33.009-9.003,45.012c16.005,84.023,52.015,180.051,108.03,288.081
    c48.014,96.026,122.034,213.06,222.062,351.097c100.027,138.039,242.067,297.074,426.118,477.125
    c180.051,184.07,340.096,327.09,480.134,429.139c140.01,101.99,257.082,177.039,351.109,225.053
    c94.025,48.014,166.045,77.021,216.049,86.996l75.002,15.014c8.002,0,21.035-3.012,39.021-9.002
    c18.004-6.012,31.008-13.004,39.02-21.016l342.086-348.098c72.061-64.008,156.045-96.018,252.08-96.018
    c68.039,0,122.025,11.994,162.037,36.01h5.99l1158.314,684.191C5600.565,4327.073,5650.569,4393.071,5666.584,4473.092z"/>
</svg>
