<?xml version="1.0" encoding="utf-8"?>
<!DOCTYPE svg PUBLIC "-//W3C//DTD SVG 1.1//EN" "http://www.w3.org/Graphics/SVG/1.1/DTD/svg11.dtd">
<svg version="1.1" xmlns="http://www.w3.org/2000/svg" xmlns:xlink="http://www.w3.org/1999/xlink" x="0px" y="0px" viewBox="0 0 512 512" enable-background="new 0 0 512 512" xml:space="preserve">
<path fill="#FFFFFF" d="M256,511.918c-141.385,0-256-114.588-256-255.937C0,114.631,114.615,0.044,256,0.044
	s256,114.587,256,255.937C512,397.33,397.385,511.918,256,511.918z M217.044,133.022c-11.302,0-10.085,16.174,1.169,16.353
	c37.268,0.591,115.151,32.805,116.926,123.806c0.23,11.831,15.2,13.027,15.2-1.168C350.339,168.011,259.044,133.022,217.044,133.022
	z M302.398,261.501c0,8.272,15.201,8.261,15.201,1.168c0-66.774-53.961-95.775-88.864-95.775c-12.422,0-6.493,16.352-1.169,16.352
	C287.314,183.246,302.398,246.136,302.398,261.501z M236.921,215.95c16.563,0,32.739,15.566,32.739,32.703
	c0,7.682,14.031,10.032,14.031,1.169c0-29.547-20.77-49.056-44.432-49.056C227.428,200.766,229.231,215.95,236.921,215.95z
	 M345.662,351.435c-26.059-17.043-57.54-47.412-68.986-45.55c-12.961,2.106-15.142,27.776-31.57,30.368
	c-28.631,4.515-96.744-53.207-91.202-91.104c2.501-17.102,34.995-22.2,30.401-35.039c-4.886-13.654-38.948-56.472-46.77-66.575
	c-16.073-20.758-68.139,19.278-64.31,45.552c2.678,18.37,36.722,85.535,87.694,136.654c50.173,50.318,115.785,82.211,134.465,89.935
	C320.641,426.118,372.061,368.702,345.662,351.435z"/>
</svg>
