<?xml version="1.0" encoding="utf-8"?>
<!DOCTYPE svg PUBLIC "-//W3C//DTD SVG 1.1//EN" "http://www.w3.org/Graphics/SVG/1.1/DTD/svg11.dtd">
<svg version="1.1" xmlns="http://www.w3.org/2000/svg" xmlns:xlink="http://www.w3.org/1999/xlink" x="0px" y="0px" viewBox="0 0 18.15 10.59" enable-background="new 0 0 18.15 10.59" xml:space="preserve">
<path fill="#1A658F" d="M8.883,10.449h1.084c0,0,0.327-0.037,0.495-0.219c0.154-0.168,0.149-0.484,0.149-0.484
	S10.59,8.27,11.265,8.053c0.666-0.215,1.52,1.426,2.426,2.059c0.686,0.477,1.206,0.371,1.206,0.371l2.423-0.033
	c0,0,1.267-0.079,0.666-1.09c-0.049-0.084-0.35-0.748-1.801-2.115c-1.52-1.432-1.316-1.199,0.514-3.674
	c1.115-1.507,1.56-2.427,1.421-2.822c-0.133-0.375-0.952-0.276-0.952-0.276L14.44,0.489c0,0-0.203-0.028-0.353,0.062
	c-0.146,0.089-0.24,0.298-0.24,0.298s-0.433,1.166-1.009,2.157C11.625,5.1,11.139,5.211,10.94,5.081
	c-0.462-0.303-0.346-1.217-0.346-1.866c0-2.028,0.303-2.874-0.592-3.093C9.707,0.05,9.489,0.002,8.73-0.006
	c-0.974-0.01-1.797,0.003-2.264,0.235c-0.31,0.154-0.55,0.497-0.403,0.517c0.18,0.025,0.588,0.112,0.805,0.411
	C7.148,1.543,7.138,2.41,7.138,2.41s0.159,2.387-0.375,2.684C6.395,5.297,5.891,4.882,4.808,2.983
	C4.253,2.01,3.834,0.935,3.834,0.935S3.753,0.734,3.609,0.627C3.434,0.497,3.19,0.455,3.19,0.455L0.598,0.472
	c0,0-0.39,0.011-0.532,0.183c-0.127,0.153-0.01,0.469-0.01,0.469s2.028,4.817,4.326,7.245C6.49,10.595,8.883,10.449,8.883,10.449z"
	/>
</svg>
